<svg xmlns="http://www.w3.org/2000/svg" xmlns:xlink="http://www.w3.org/1999/xlink" viewBox="0,0,256,256" width="100px" height="100px" fill-rule="nonzero"><g fill="#ffffff" fill-rule="nonzero" stroke="none" stroke-width="1" stroke-linecap="butt" stroke-linejoin="miter" stroke-miterlimit="10" stroke-dasharray="" stroke-dashoffset="0" font-family="none" font-weight="none" font-size="none" text-anchor="none" style="mix-blend-mode: normal"><g transform="scale(5.12,5.12)"><path d="M21.60938,2c-2.67578,0 -8.80859,1.8125 -10.10937,3.15625c-0.48047,0.45703 -0.60156,1.14453 -0.48047,1.60156c0.23828,0.45703 9.96875,15.22266 9.96875,15.22266c1.05859,1.67969 1.74609,1.98828 2.17969,1.98828c0.15625,0 0.27734,-0.03906 0.375,-0.06641c0.35938,-0.11719 1.5625,-0.54687 1.32031,-3.29297c-0.11719,-3.09375 -1.07812,-16.71094 -1.19922,-17.39844c-0.23828,-0.57031 -0.60156,-1.03125 -1.32031,-1.14844c-0.19922,-0.04297 -0.44531,-0.0625 -0.73437,-0.0625zM21.60938,4c0.05078,0 0.08984,0 0.125,0c0.22656,2.58203 1.01953,13.83984 1.12891,16.6875l0.00781,0.09375c0.01563,0.17188 0.01953,0.32422 0.02344,0.46094c-0.07422,-0.10547 -0.15234,-0.22656 -0.23828,-0.36328c-3.29297,-4.99609 -8.08594,-12.29297 -9.50391,-14.49219c1.29297,-0.83984 6.11719,-2.38672 8.45703,-2.38672zM36.73828,15.99609c-0.31641,0 -0.61328,0.08594 -0.87891,0.27344c-0.75,0.73828 -0.48437,0.21484 -4.80078,5.93359l-2.04297,2.62891c-0.48047,0.57422 -0.36719,1.52734 0.11328,2.21484c0.39844,0.57031 0.91797,0.91797 1.60547,0.91797c0.14063,0 0.28516,-0.01172 0.44141,-0.04297c0.35938,-0.11328 1.08203,-0.23047 2.40234,-0.57422c8.27734,-1.82812 8.35156,-1.8125 8.71484,-2.03906c0.47656,-0.34375 0.71875,-0.80469 0.71875,-1.49219v-0.11328c-0.23828,-1.82812 -3.79297,-6.74609 -5.47266,-7.54687c-0.26953,-0.10156 -0.53906,-0.16016 -0.80078,-0.16016zM36.85938,18.07422c1.13672,0.80859 3.57813,4.16797 4.08594,5.58594c-0.62891,0.15625 -1.94531,0.44531 -4.16797,0.93359l-3.63281,0.80078l-0.03516,0.01172l-0.03516,0.00781c-0.69922,0.17969 -1.21875,0.29297 -1.60547,0.37891c-0.26172,0.05859 -0.47656,0.10547 -0.66797,0.15625c-0.00781,-0.01562 -0.01953,-0.03125 -0.03516,-0.04687c-0.00781,-0.01172 -0.01172,-0.02344 -0.01953,-0.03906l1.90625,-2.45703c3.33594,-4.41016 3.85156,-4.99219 4.20703,-5.33203zM9.40234,23.96875c-0.48047,0 -1.08203,0.23047 -1.44141,0.80078c-0.83984,1.14844 -1.10156,4.80078 -0.85937,7.32031c0.11719,0.80078 0.23828,1.45313 0.47656,1.91016c0.35938,0.57422 0.83984,0.91797 1.44141,0.91797c0.35938,0 0.08984,-0.10547 7.29297,-2.16406l3.24609,-1.03125c0.83984,-0.23047 1.42578,-0.80078 1.42578,-1.71875c0,-0.91406 -0.44531,-1.67187 -1.28516,-2.01562l-2.28125,-0.91406c-7.80859,-3.09375 -7.65625,-3.10547 -8.01562,-3.10547zM9.51172,26.07813c0.35938,0.13672 0.9375,0.37109 1.71094,0.67969c1.14844,0.46094 2.86328,1.14453 5.44922,2.16797l2.25,0.90234l-3.1875,1.01172c-3.96094,1.13281 -5.66406,1.67188 -6.47656,1.94141c-0.07422,-0.30469 -0.14062,-0.71875 -0.17187,-0.9375c-0.21875,-2.38672 0.09766,-5 0.42578,-5.76562zM30.89453,32.01563c-0.54297,0 -1.05078,0.17188 -1.44141,0.59375c-0.39062,0.42578 -0.68359,1.62109 -0.20312,2.30859l1.32031,1.94531c4.32422,6.64063 4.34766,6.98047 4.70703,7.21094c0.28125,0.26563 0.60156,0.37891 0.94141,0.37891c0.24219,0 0.49219,-0.05859 0.73828,-0.15234c1.92578,-0.6875 5.68359,-5.23828 5.92188,-7.06641c0.12109,-0.57422 -0.11719,-1.14844 -0.59766,-1.71875c-0.24219,-0.23047 -0.74219,-0.3125 -7.46875,-2.40234l-3.07812,-0.97656c-0.28516,-0.07812 -0.56641,-0.12109 -0.83984,-0.12109zM22.76563,34.01563c-0.52734,0 -1.01562,0.15625 -1.31641,0.58984l-1.5625,1.82813c-5.40625,6.06641 -5.64453,6.41016 -5.76562,6.75391c-0.12109,0.23047 -0.12109,0.45703 -0.12109,0.6875c0.12109,0.33984 0.24219,0.57031 0.48438,0.91406c1.22266,1.27344 6.32813,3.21094 8.59766,3.21094c0.17578,0 0.33594,-0.01172 0.47656,-0.03516c0.60156,-0.11719 1.08203,-0.46094 1.32031,-1.03125c0.12109,-0.34375 0.12109,-0.57031 0.12109,-7.78125v-3.32422c0,-1 -0.44141,-1.33203 -1.28125,-1.67578c-0.3125,-0.08594 -0.64062,-0.13672 -0.95312,-0.13672zM31.06641,34.03125c0.03125,0.00781 0.07031,0.01563 0.10938,0.02734l3.04297,0.96484c2.11328,0.65625 3.61328,1.11719 4.68359,1.44531c0.88281,0.26953 1.56641,0.47656 1.96875,0.60938c-0.37109,1.28906 -3.13281,4.57031 -4.42969,5.26563c-0.11719,-0.18359 -0.27344,-0.43359 -0.45312,-0.71875c-0.59375,-0.94922 -1.70312,-2.72266 -3.76172,-5.88672zM22.86719,36.01953c0.03516,0.00391 0.08203,0.00781 0.13281,0.01563v3.11719c0,4 0,6.01563 -0.01953,6.84766c-1.77734,-0.05859 -5.52734,-1.51953 -6.76172,-2.35937c0.70703,-0.85937 2.54297,-2.94141 5.1875,-5.91016z"></path></g></g></svg>