<?xml version="1.0" encoding="iso-8859-1"?><!-- Generator: Adobe Illustrator 21.0.0, SVG Export Plug-In . SVG Version: 6.00 Build 0)  --><svg xmlns="http://www.w3.org/2000/svg" xmlns:xlink="http://www.w3.org/1999/xlink" viewBox="0 0 50 50" width="100px" height="100px"><path d="M22.868,36.019c0.037,0.004,0.08,0.01,0.132,0.019v3.112c0,4.002,0,6.016-0.022,6.848c-1.775-0.057-5.526-1.518-6.758-2.357c0.705-0.861,2.543-2.94,5.189-5.91L22.868,36.019 M22.768,34.014c-0.53,0-1.018,0.157-1.32,0.589l-1.561,1.831c-5.405,6.066-5.645,6.41-5.765,6.753c-0.12,0.229-0.12,0.458-0.12,0.687c0.12,0.343,0.24,0.572,0.48,0.916c1.225,1.274,6.333,3.21,8.601,3.21c0.177,0,0.337-0.012,0.476-0.037c0.601-0.115,1.081-0.458,1.321-1.03C25,46.59,25,46.361,25,39.15c0,0,0-3.205,0-3.319c0-1.003-0.442-1.335-1.282-1.678C23.406,34.068,23.08,34.014,22.768,34.014L22.768,34.014z"/><path d="M9.512,26.077c0.36,0.14,0.938,0.371,1.71,0.68c1.149,0.46,2.865,1.147,5.45,2.171l2.25,0.898l-3.185,1.012c-3.961,1.133-5.667,1.675-6.481,1.941c-0.073-0.301-0.138-0.719-0.171-0.934C8.865,29.456,9.183,26.845,9.512,26.077 M9.402,23.971c-0.48,0-1.081,0.229-1.441,0.801c-0.841,1.145-1.102,4.797-0.862,7.315c0.12,0.801,0.24,1.456,0.48,1.914c0.36,0.572,0.841,0.916,1.441,0.916c0.36,0,0.088-0.104,7.294-2.164l3.243-1.03c0.841-0.229,1.43-0.803,1.43-1.718c0-0.916-0.448-1.673-1.289-2.016l-2.282-0.916C9.61,23.981,9.763,23.971,9.402,23.971L9.402,23.971z"/><path d="M21.611,4c0.047,0,0.088,0.001,0.123,0.002c0.225,2.579,1.02,13.837,1.131,16.683l0.002,0.048l0.004,0.048c0.015,0.173,0.022,0.326,0.024,0.461c-0.073-0.107-0.152-0.227-0.237-0.362C19.365,15.883,14.57,8.587,13.15,6.387C14.446,5.547,19.27,4,21.611,4 M21.611,2C18.933,2,12.802,3.811,11.5,5.156c-0.48,0.458-0.601,1.145-0.48,1.602c0.24,0.458,9.969,15.223,9.969,15.223c1.058,1.681,1.745,1.99,2.177,1.99c0.157,0,0.28-0.04,0.376-0.071c0.36-0.114,1.563-0.545,1.323-3.292c-0.12-3.09-1.081-16.711-1.201-17.398c-0.24-0.572-0.601-1.03-1.321-1.145C22.144,2.021,21.897,2,21.611,2L21.611,2z"/><path d="M31.067,34.033c0.032,0.006,0.068,0.013,0.108,0.024l3.043,0.967c2.114,0.657,3.614,1.116,4.685,1.443c0.884,0.27,1.564,0.478,1.968,0.609c-0.373,1.29-3.132,4.572-4.429,5.267c-0.117-0.183-0.273-0.433-0.451-0.716c-0.596-0.952-1.705-2.725-3.765-5.887L31.067,34.033 M30.894,32.015c-0.543,0-1.05,0.171-1.442,0.596c-0.389,0.422-0.683,1.619-0.202,2.306l1.321,1.946c4.324,6.639,4.345,6.98,4.706,7.209c0.281,0.268,0.604,0.379,0.944,0.379c0.24,0,0.489-0.056,0.738-0.15c1.922-0.687,5.681-5.238,5.921-7.069c0.12-0.572-0.12-1.145-0.601-1.717c-0.24-0.229-0.74-0.311-7.468-2.402l-3.078-0.978C31.451,32.059,31.168,32.015,30.894,32.015L30.894,32.015z"/><path d="M36.861,18.075c1.134,0.809,3.579,4.168,4.085,5.588c-0.629,0.153-1.946,0.443-4.169,0.933l-3.632,0.801l-0.036,0.008l-0.036,0.009c-0.696,0.181-1.217,0.295-1.602,0.379c-0.265,0.058-0.478,0.105-0.668,0.155c-0.01-0.013-0.022-0.029-0.035-0.048c-0.008-0.011-0.015-0.023-0.021-0.035l1.905-2.457C35.987,18.995,36.502,18.416,36.861,18.075 M36.741,15.997c-0.317,0-0.618,0.085-0.882,0.274c-0.75,0.738-0.483,0.215-4.803,5.933l-2.04,2.63c-0.48,0.572-0.367,1.527,0.113,2.213c0.399,0.57,0.917,0.918,1.606,0.918c0.14,0,0.286-0.014,0.441-0.044c0.36-0.114,1.08-0.229,2.4-0.572c8.28-1.83,8.355-1.815,8.715-2.043c0.48-0.343,0.72-0.801,0.72-1.487c0-0.114,0-0.114,0-0.114c-0.24-1.83-3.792-6.749-5.472-7.549C37.269,16.053,37,15.997,36.741,15.997L36.741,15.997z"/></svg>